<svg width="32" height="32" viewBox="0 0 32 32" fill="none" xmlns="http://www.w3.org/2000/svg">
<g clip-path="url(#clip0)">
<path fill-rule="evenodd" clip-rule="evenodd" d="M-9.61651e-07 10L-4.37114e-07 22C-1.9574e-07 27.522 4.478 32 10 32L22 32C27.522 32 32 27.522 32 22L32 10C32 4.478 27.522 -1.20302e-06 22 -9.61651e-07L10 -4.37114e-07C4.478 -1.9574e-07 -1.20302e-06 4.478 -9.61651e-07 10ZM22 3C25.86 3 29 6.14 29 10L29 22C29 25.86 25.86 29 22 29L10 29C6.14 29 3 25.86 3 22L3 10C3 6.14 6.14 3 10 3L22 3ZM8 16C8 20.418 11.582 24 16 24C20.418 24 24 20.418 24 16C24 11.582 20.418 8 16 8C11.582 8 8 11.582 8 16ZM21 16C21 18.756 18.756 21 16 21C13.242 21 11 18.756 11 16C11 13.244 13.242 11 16 11C18.756 11 21 13.244 21 16ZM7.40035 6.33661C7.98908 6.33661 8.46635 6.81388 8.46635 7.40261C8.46635 7.99135 7.98908 8.46861 7.40035 8.46861C6.81161 8.46861 6.33435 7.99135 6.33435 7.40261C6.33435 6.81388 6.81161 6.33661 7.40035 6.33661Z" fill="#0047BB"/>
</g>
<defs>
<clipPath id="clip0">
<rect width="32" height="32" fill="white" transform="translate(0 32) rotate(-90)"/>
</clipPath>
</defs>
</svg>
