<svg width="32" height="32" viewBox="0 0 32 32" fill="none" xmlns="http://www.w3.org/2000/svg">
<path d="M30.8356 23.3529C30.7981 23.2751 30.7631 23.2106 30.7306 23.1589C30.1927 22.2279 29.1649 21.0851 27.6477 19.7302L27.6157 19.6991L27.5996 19.6839L27.5834 19.6683H27.5671C26.8786 19.0374 26.4425 18.6132 26.2599 18.396C25.9258 17.9823 25.851 17.5635 26.0336 17.1392C26.1626 16.8186 26.6472 16.1416 27.4862 15.1072C27.9276 14.559 28.2771 14.1196 28.5352 13.7886C30.3969 11.4097 31.204 9.8896 30.9564 9.22761L30.8602 9.07292C30.7956 8.97978 30.6289 8.89458 30.3602 8.81688C30.0908 8.73934 29.7466 8.72652 29.3269 8.77819L24.6785 8.80906C24.6032 8.78341 24.4957 8.7858 24.3556 8.81688C24.2157 8.84796 24.1457 8.86356 24.1457 8.86356L24.0648 8.90241L24.0006 8.94908C23.9468 8.97995 23.8876 9.03423 23.823 9.11182C23.7587 9.18914 23.705 9.27988 23.662 9.38329C23.1559 10.6347 22.5805 11.7982 21.9348 12.8738C21.5366 13.5151 21.1709 14.0709 20.837 14.5415C20.5035 15.012 20.2237 15.3586 19.998 15.5808C19.7718 15.8032 19.5677 15.9814 19.3845 16.116C19.2015 16.2506 19.0618 16.3075 18.9651 16.2867C18.8681 16.2659 18.7768 16.2452 18.6904 16.2246C18.5398 16.1314 18.4187 16.0048 18.3274 15.8445C18.2357 15.6842 18.174 15.4824 18.1417 15.2394C18.1096 14.9962 18.0906 14.787 18.0852 14.6111C18.0802 14.4354 18.0825 14.1869 18.0934 13.8664C18.1046 13.5456 18.1096 13.3286 18.1096 13.2148C18.1096 12.8217 18.1176 12.3951 18.1336 11.9349C18.1499 11.4747 18.163 11.11 18.1741 10.8414C18.185 10.5725 18.1901 10.2879 18.1901 9.988C18.1901 9.68806 18.1711 9.45284 18.1336 9.28211C18.0965 9.1116 18.0396 8.94609 17.9645 8.78564C17.8891 8.62534 17.7786 8.50135 17.6337 8.41332C17.4884 8.3254 17.3079 8.25563 17.093 8.2038C16.5226 8.07975 15.7964 8.01264 14.9138 8.00221C12.9125 7.98156 11.6266 8.10577 11.0563 8.37469C10.8303 8.4883 10.6259 8.64355 10.443 8.83992C10.2493 9.06754 10.2223 9.19175 10.3621 9.21218C11.0079 9.30515 11.465 9.52755 11.734 9.87917L11.831 10.0655C11.9064 10.1999 11.9817 10.4379 12.057 10.7791C12.1323 11.1204 12.1808 11.4979 12.2022 11.9114C12.2559 12.6665 12.2559 13.3129 12.2022 13.8506C12.1483 14.3885 12.0975 14.8073 12.0489 15.1072C12.0003 15.4072 11.9277 15.6502 11.831 15.8363C11.734 16.0225 11.6695 16.1363 11.6372 16.1776C11.6049 16.2189 11.578 16.2449 11.5566 16.2551C11.4168 16.3066 11.2713 16.3329 11.1207 16.3329C10.97 16.3329 10.7872 16.2604 10.572 16.1155C10.3569 15.9707 10.1336 15.7717 9.90225 15.5182C9.67087 15.2648 9.40991 14.9105 9.11928 14.4555C8.82887 14.0005 8.52756 13.4627 8.2155 12.8422L7.95732 12.3922C7.79592 12.1027 7.57544 11.6811 7.29566 11.1279C7.01571 10.5745 6.76827 10.0392 6.55317 9.52206C6.46718 9.30488 6.338 9.13953 6.16586 9.02575L6.08508 8.97908C6.03137 8.93778 5.94516 8.89393 5.8269 8.8472C5.70846 8.80052 5.58488 8.76705 5.45565 8.74646L1.03318 8.77732C0.581265 8.77732 0.274634 8.87573 0.113178 9.07226L0.0485612 9.16523C0.0162813 9.21702 0 9.29972 0 9.41355C0 9.52734 0.0322799 9.66698 0.0968963 9.83233C0.742495 11.2907 1.44457 12.6972 2.20312 14.0521C2.96167 15.4069 3.62084 16.4983 4.18022 17.3252C4.73972 18.1527 5.31002 18.9336 5.89112 19.6677C6.47221 20.4021 6.85686 20.8727 7.04505 21.0795C7.23348 21.2866 7.38148 21.4415 7.48906 21.5449L7.89264 21.9171C8.15088 22.1654 8.5301 22.4627 9.03047 22.8091C9.53095 23.1557 10.085 23.497 10.693 23.8334C11.301 24.1692 12.0084 24.4433 12.8155 24.6553C13.6225 24.8675 14.408 24.9526 15.172 24.9115H17.0282C17.4047 24.8803 17.6899 24.7665 17.8837 24.5701L17.9479 24.4924C17.9911 24.4306 18.0315 24.3347 18.0688 24.2057C18.1066 24.0764 18.1254 23.934 18.1254 23.7791C18.1144 23.3344 18.1496 22.9337 18.2301 22.5769C18.3105 22.2203 18.4022 21.9514 18.5048 21.7703C18.6073 21.5893 18.7229 21.4366 18.8517 21.3128C18.9807 21.1888 19.0726 21.1136 19.1265 21.0878C19.1801 21.0618 19.2229 21.0441 19.2552 21.0335C19.5134 20.9508 19.8173 21.0309 20.1674 21.2742C20.5172 21.5172 20.8452 21.8173 21.1521 22.174C21.4588 22.531 21.8272 22.9315 22.2576 23.3761C22.6882 23.8209 23.0647 24.1516 23.3874 24.3691L23.71 24.5552C23.9255 24.6794 24.2053 24.7932 24.5497 24.8966C24.8935 25 25.1947 25.0258 25.4533 24.9742L29.5851 24.9122C29.9938 24.9122 30.3118 24.8472 30.5373 24.7181C30.7633 24.5889 30.8976 24.4465 30.9409 24.2915C30.9841 24.1365 30.9864 23.9605 30.9491 23.7638C30.9108 23.5676 30.8731 23.4304 30.8356 23.3529Z" fill="#DCDCDC"/>
</svg>
