<svg width="32" height="32" viewBox="0 0 32 32" fill="none" xmlns="http://www.w3.org/2000/svg">
<g clip-path="url(#clip0)">
<path d="M24.3222 1.00645L20.0048 1C15.1544 1 12.0198 3.99444 12.0198 8.62914V12.1467H7.67887C7.30376 12.1467 7 12.4298 7 12.7791V17.8756C7 18.2249 7.3041 18.5077 7.67887 18.5077H12.0198V31.3679C12.0198 31.7172 12.3236 32 12.6987 32H18.3624C18.7375 32 19.0412 31.7168 19.0412 31.3679V18.5077H24.1168C24.4919 18.5077 24.7956 18.2249 24.7956 17.8756L24.7977 12.7791C24.7977 12.6114 24.726 12.4508 24.5989 12.3321C24.4718 12.2134 24.2986 12.1467 24.1185 12.1467H19.0412V9.16482C19.0412 7.73161 19.408 7.00405 21.4131 7.00405L24.3215 7.00308C24.6962 7.00308 25 6.71992 25 6.37097V1.63856C25 1.28993 24.6966 1.0071 24.3222 1.00645Z" fill="#0047BB"/>
</g>
<defs>
<clipPath id="clip0">
<rect width="32" height="32" fill="white" transform="translate(0 32) rotate(-90)"/>
</clipPath>
</defs>
</svg>
