<svg width="32" height="32" viewBox="0 0 32 32" fill="none" xmlns="http://www.w3.org/2000/svg">
<path d="M5.33331 28.5333V3.46663C5.33331 3.25445 5.4176 3.05097 5.56763 2.90094C5.71766 2.75091 5.92114 2.66663 6.13331 2.66663H21.6693C21.8814 2.66681 22.0848 2.75122 22.2346 2.90129L26.432 7.09863C26.5066 7.17316 26.5658 7.26171 26.606 7.35919C26.6463 7.45667 26.6669 7.56115 26.6666 7.66663V28.5333C26.6666 28.6384 26.646 28.7424 26.6058 28.8394C26.5655 28.9365 26.5066 29.0247 26.4323 29.099C26.358 29.1733 26.2699 29.2322 26.1728 29.2724C26.0757 29.3126 25.9717 29.3333 25.8666 29.3333H6.13331C6.02826 29.3333 5.92423 29.3126 5.82717 29.2724C5.73011 29.2322 5.64191 29.1733 5.56763 29.099C5.49334 29.0247 5.43441 28.9365 5.39421 28.8394C5.35401 28.7424 5.33331 28.6384 5.33331 28.5333V28.5333Z" stroke="#0047BB" stroke-width="1.5" stroke-linecap="round" stroke-linejoin="round"/>
<path d="M21.3333 7.19997V3.13864C21.3335 3.04541 21.3613 2.95432 21.4131 2.87685C21.465 2.79939 21.5387 2.73902 21.6248 2.70336C21.7109 2.66771 21.8057 2.65836 21.8972 2.6765C21.9886 2.69465 22.0726 2.73947 22.1386 2.80531L26.528 7.19464C26.5945 7.2604 26.6399 7.34447 26.6584 7.43614C26.6769 7.5278 26.6677 7.62291 26.6319 7.70932C26.5962 7.79572 26.5355 7.86952 26.4576 7.92129C26.3797 7.97306 26.2882 8.00045 26.1946 7.99997H22.1333C21.9211 7.99997 21.7177 7.91569 21.5676 7.76566C21.4176 7.61563 21.3333 7.41215 21.3333 7.19997Z" fill="#0047BB" stroke="#0047BB" stroke-width="1.5" stroke-linecap="round" stroke-linejoin="round"/>
<path d="M14.18 13.8866L15.5653 10.9492C15.6028 10.8653 15.6638 10.7939 15.7409 10.7439C15.8181 10.6939 15.908 10.6672 16 10.6672C16.0919 10.6672 16.1819 10.6939 16.259 10.7439C16.3362 10.7939 16.3972 10.8653 16.4346 10.9492L17.8213 13.8866L20.9186 14.3612C21.316 14.4212 21.4733 14.9332 21.1853 15.2266L18.9453 17.5106L19.4733 20.7386C19.5413 21.1532 19.1266 21.4692 18.7706 21.2732L16 19.7492L13.2293 21.2732C12.8733 21.4692 12.4586 21.1532 12.5266 20.7399L13.0546 17.5106L10.8146 15.2266C10.5253 14.9332 10.684 14.4212 11.0813 14.3599L14.18 13.8866V13.8866Z" stroke="#0047BB" stroke-width="1.5" stroke-linecap="round" stroke-linejoin="round"/>
</svg>
